<svg xmlns="http://www.w3.org/2000/svg" xmlns:xlink="http://www.w3.org/1999/xlink" xmlns:svgjs="http://svgjs.com/svgjs" width="512" height="512" x="0" y="0" viewBox="0 0 512 512" style="enable-background:new 0 0 512 512" xml:space="preserve" class=""><g><g xmlns="http://www.w3.org/2000/svg">	<path style="" d="M272,488h-32c-4.416,0-8-3.584-8-8v-24h48v24C280,484.416,276.416,488,272,488z" fill="#69db72" data-original="#54febd" class=""></path>	<path style="" d="M280.512,216.512c-19.592,19.592-27.512,46.176-23.488,70.472   c24.304,4.024,50.88-3.904,70.472-23.488c19.592-19.592,27.512-46.176,23.488-70.472   C326.68,188.992,300.096,196.92,280.512,216.512z" fill="#69db72" data-original="#54febd" class=""></path>	<path style="" d="M211.576,260.424c16.328,16.328,22.928,38.48,19.576,58.728c-20.248,3.352-42.4-3.248-58.728-19.576   s-22.928-38.48-19.576-58.728C173.096,237.496,195.248,244.096,211.576,260.424z" fill="#69db72" data-original="#54febd" class=""></path></g><g xmlns="http://www.w3.org/2000/svg">	<path style="" d="M256,32c-4.424,0-8-3.584-8-8V8c0-4.416,3.576-8,8-8c4.424,0,8,3.584,8,8v16   C264,28.416,260.424,32,256,32z" fill="#2a2f35" data-original="#1d1b4c" class=""></path>	<path style="" d="M456,216h-16c-4.424,0-8-3.584-8-8s3.576-8,8-8h16c4.424,0,8,3.584,8,8S460.424,216,456,216z" fill="#2a2f35" data-original="#1d1b4c" class=""></path>	<path style="" d="M72,216H56c-4.424,0-8-3.584-8-8s3.576-8,8-8h16c4.424,0,8,3.584,8,8S76.424,216,72,216z" fill="#2a2f35" data-original="#1d1b4c" class=""></path>	<path style="" d="M386.112,85.888c-2.048,0-4.096-0.784-5.656-2.344c-3.128-3.128-3.128-8.184,0-11.312l11.312-11.312   c3.128-3.128,8.184-3.128,11.312,0c3.128,3.128,3.128,8.184,0,11.312l-11.312,11.312C390.2,85.112,388.16,85.888,386.112,85.888z" fill="#2a2f35" data-original="#1d1b4c" class=""></path>	<path style="" d="M114.576,357.424c-2.048,0-4.096-0.784-5.656-2.344c-3.128-3.128-3.128-8.184,0-11.312   l11.312-11.312c3.128-3.128,8.184-3.128,11.312,0s3.128,8.184,0,11.312l-11.312,11.312   C118.672,356.64,116.624,357.424,114.576,357.424z" fill="#2a2f35" data-original="#1d1b4c" class=""></path>	<path style="" d="M397.424,357.424c-2.048,0-4.096-0.784-5.656-2.344l-11.312-11.312   c-3.128-3.128-3.128-8.184,0-11.312s8.184-3.128,11.312,0l11.312,11.312c3.128,3.128,3.128,8.184,0,11.312   C401.512,356.64,399.472,357.424,397.424,357.424z" fill="#2a2f35" data-original="#1d1b4c" class=""></path>	<path style="" d="M125.888,85.888c-2.048,0-4.096-0.784-5.656-2.344L108.92,72.232c-3.128-3.128-3.128-8.184,0-11.312   s8.184-3.128,11.312,0l11.312,11.312c3.128,3.128,3.128,8.184,0,11.312C129.984,85.112,127.936,85.888,125.888,85.888z" fill="#2a2f35" data-original="#1d1b4c" class=""></path>	<path style="" d="M326.416,46.008c-1.024,0-2.064-0.2-3.064-0.616c-4.08-1.688-6.016-6.368-4.328-10.456l6.128-14.784   c1.688-4.088,6.392-6.008,10.456-4.328c4.08,1.688,6.016,6.368,4.328,10.456l-6.128,14.784   C332.528,44.152,329.544,46.008,326.416,46.008z" fill="#2a2f35" data-original="#1d1b4c" class=""></path>	<path style="" d="M440.776,292.536c-1.024,0-2.064-0.2-3.064-0.616l-14.784-6.12   c-4.08-1.688-6.016-6.368-4.328-10.456s6.392-6,10.456-4.328l14.784,6.12c4.08,1.688,6.016,6.368,4.328,10.456   C446.888,290.672,443.904,292.536,440.776,292.536z" fill="#2a2f35" data-original="#1d1b4c" class=""></path>	<path style="" d="M86.008,145.592c-1.024,0-2.064-0.2-3.064-0.616l-14.784-6.12c-4.08-1.688-6.016-6.368-4.328-10.456   s6.4-6.008,10.456-4.328l14.784,6.12c4.08,1.688,6.016,6.368,4.328,10.456C92.128,143.728,89.144,145.592,86.008,145.592z" fill="#2a2f35" data-original="#1d1b4c" class=""></path>	<path style="" d="M425.992,145.592c-3.136,0-6.12-1.864-7.392-4.944c-1.688-4.08,0.248-8.76,4.328-10.456l14.784-6.12   c4.064-1.68,8.768,0.248,10.456,4.328c1.688,4.08-0.248,8.76-4.328,10.456l-14.784,6.12   C428.056,145.392,427.016,145.592,425.992,145.592z" fill="#2a2f35" data-original="#1d1b4c" class=""></path>	<path style="" d="M71.224,292.536c-3.136,0-6.12-1.864-7.392-4.944c-1.688-4.08,0.248-8.76,4.328-10.456l14.784-6.12   c4.064-1.672,8.768,0.248,10.456,4.328s-0.248,8.76-4.328,10.456l-14.784,6.12C73.288,292.336,72.248,292.536,71.224,292.536z" fill="#2a2f35" data-original="#1d1b4c" class=""></path>	<path style="" d="M185.584,46.008c-3.136,0-6.12-1.856-7.392-4.944l-6.128-14.784   c-1.688-4.08,0.248-8.76,4.328-10.456c4.056-1.672,8.768,0.24,10.456,4.328l6.128,14.784c1.688,4.08-0.248,8.76-4.328,10.456   C187.648,45.816,186.608,46.008,185.584,46.008z" fill="#2a2f35" data-original="#1d1b4c" class=""></path>	<path style="" d="M272,512h-32c-8.824,0-16-7.176-16-16v-24c0-4.416,3.576-8,8-8h48c4.424,0,8,3.584,8,8v24   C288,504.824,280.824,512,272,512z M240,480v16h32.008L272,480H240z" fill="#2a2f35" data-original="#1d1b4c" class=""></path>	<path style="" d="M296,480h-80c-13.232,0-24-10.768-24-24v-48c0-4.416,3.576-8,8-8h112c4.424,0,8,3.584,8,8v48   C320,469.232,309.232,480,296,480z M208,416v40c0,4.408,3.584,8,8,8h80c4.416,0,8-3.592,8-8v-40H208z" fill="#2a2f35" data-original="#1d1b4c" class=""></path>	<path style="" d="M312,416c-4.424,0-8-3.584-8-8v-5.624c0-31.192,14.864-60.728,40.784-81.032   c39-30.544,59.376-78.384,54.504-127.96c-6.584-66.888-59.792-120.904-126.536-128.44c-41.64-4.704-81.672,7.96-112.648,35.648   C129.528,127.912,112,167.056,112,208c0,44.064,19.776,85.104,54.256,112.592C192.792,341.728,208,372.24,208,404.312V408   c0,4.416-3.576,8-8,8s-8-3.584-8-8v-3.688c0-27.168-13.016-53.12-35.712-71.208C117.976,302.56,96,256.96,96,208   c0-45.496,19.48-88.992,53.44-119.336c34.432-30.768,78.888-44.824,125.112-39.616c74.184,8.368,133.344,68.416,140.656,142.776   c5.416,55.048-17.224,108.176-60.552,142.12C332.632,351.192,320,376.136,320,402.376V408C320,412.416,316.424,416,312,416z" fill="#2a2f35" data-original="#1d1b4c" class=""></path>	<path style="" d="M146.488,166.992c-1.096,0-2.2-0.224-3.264-0.704c-4.032-1.808-5.832-6.536-4.032-10.568   c9.072-20.248,24.696-39.28,42.856-52.208c3.608-2.568,8.592-1.72,11.16,1.872c2.56,3.6,1.728,8.592-1.872,11.16   c-15.912,11.336-29.592,28-37.528,45.72C152.464,165.232,149.544,166.992,146.488,166.992z" fill="#2a2f35" data-original="#1d1b4c" class=""></path>	<path style="" d="M210.184,104.992c-3.144,0-6.128-1.872-7.4-4.96c-1.68-4.088,0.264-8.76,4.352-10.44   c1.08-0.448,2.168-0.872,3.256-1.288c4.112-1.568,8.752,0.488,10.328,4.624c1.568,4.128-0.496,8.752-4.624,10.328l-2.864,1.144   C212.232,104.8,211.2,104.992,210.184,104.992z" fill="#2a2f35" data-original="#1d1b4c" class=""></path>	<path style="" d="M304,448H200c-4.424,0-8-3.584-8-8s3.576-8,8-8h104c4.424,0,8,3.584,8,8S308.424,448,304,448z" fill="#2a2f35" data-original="#1d1b4c" class=""></path>	<path style="" d="M269.496,272c-4.6,0-9.2-0.368-13.784-1.136c-3.384-0.56-6.032-3.208-6.584-6.584   c-4.6-27.776,5.016-56.72,25.728-77.44l0,0c20.712-20.704,49.664-30.336,77.44-25.72c3.384,0.56,6.032,3.208,6.584,6.584   c4.6,27.776-5.016,56.72-25.728,77.44C315.848,262.44,292.808,272,269.496,272z M264.192,255.8   c20.888,1.608,42.032-6.36,57.64-21.968c15.6-15.608,23.576-36.776,21.968-57.64c-20.872-1.6-42.032,6.368-57.64,21.968   C270.56,213.768,262.584,234.944,264.192,255.8z" fill="#2a2f35" data-original="#1d1b4c" class=""></path>	<path style="" d="M220.76,304c-19.784,0-39.328-8.104-53.992-22.776c-17.56-17.568-25.72-42.128-21.808-65.688   c0.56-3.376,3.2-6.024,6.584-6.584c23.6-3.888,48.136,4.264,65.688,21.816l0,0c17.56,17.568,25.72,42.128,21.808,65.688   c-0.56,3.376-3.2,6.024-6.584,6.584C228.568,303.688,224.656,304,220.76,304z M160.088,224.088   c-0.944,16.616,5.552,33.392,17.992,45.832c12.44,12.432,29.224,18.976,45.832,18c0.944-16.616-5.552-33.392-17.992-45.832   C193.488,229.648,176.704,223.136,160.088,224.088z" fill="#2a2f35" data-original="#1d1b4c" class=""></path>	<path style="" d="M256,328c-2.048,0-4.096-0.784-5.656-2.344l-24.88-24.88c-3.128-3.12-3.128-8.184,0-11.312   s8.184-3.128,11.312,0l24.88,24.88c3.128,3.12,3.128,8.184,0,11.312C260.096,327.216,258.048,328,256,328z" fill="#2a2f35" data-original="#1d1b4c" class=""></path>	<path style="" d="M256,416c-4.424,0-8-3.584-8-8V278.64c0-5.992,0.896-11.992,2.664-17.832   c1.28-4.224,5.768-6.632,9.968-5.336c4.232,1.28,6.624,5.744,5.344,9.976c-1.312,4.328-1.976,8.768-1.976,13.192V408   C264,412.416,260.424,416,256,416z" fill="#2a2f35" data-original="#1d1b4c" class=""></path></g><g xmlns="http://www.w3.org/2000/svg"></g><g xmlns="http://www.w3.org/2000/svg"></g><g xmlns="http://www.w3.org/2000/svg"></g><g xmlns="http://www.w3.org/2000/svg"></g><g xmlns="http://www.w3.org/2000/svg"></g><g xmlns="http://www.w3.org/2000/svg"></g><g xmlns="http://www.w3.org/2000/svg"></g><g xmlns="http://www.w3.org/2000/svg"></g><g xmlns="http://www.w3.org/2000/svg"></g><g xmlns="http://www.w3.org/2000/svg"></g><g xmlns="http://www.w3.org/2000/svg"></g><g xmlns="http://www.w3.org/2000/svg"></g><g xmlns="http://www.w3.org/2000/svg"></g><g xmlns="http://www.w3.org/2000/svg"></g><g xmlns="http://www.w3.org/2000/svg"></g></g></svg>